<svg width="16" height="16" viewBox="0 0 16 16" fill="none" xmlns="http://www.w3.org/2000/svg">
<path d="M9.35443 5.16279C7.8499 4.42908 6.08557 4.86303 5.06637 6.0992L6.64228 7.6751C6.82213 7.85496 6.82213 8.14331 6.64228 8.32031C6.55377 8.40881 6.43672 8.45449 6.31967 8.45449C6.20262 8.45449 6.08557 8.40881 5.99707 8.32031L4.56391 6.88715L0.906782 14.387C0.82399 14.5583 0.81828 14.7667 0.906782 14.9494C1.06095 15.2663 1.44636 15.3976 1.76325 15.2434L5.5774 13.382L4.17279 11.9774C3.99293 11.8004 3.99293 11.5092 4.17279 11.3322C4.35265 11.1552 4.64099 11.1552 4.818 11.3322L6.44529 12.9595L9.35729 11.5378C10.0425 11.2038 10.6277 10.6442 10.9874 9.90763C11.8468 8.14616 11.1159 6.02211 9.35443 5.16279ZM11.9838 4.16643C12.5405 3.00449 12.2522 1.63128 11.1188 0.692017C9.68274 1.88251 9.61994 3.76103 10.8932 5.02861L11.1216 5.257C12.3892 6.53029 14.2706 6.46748 15.4582 5.03146C14.5189 3.89807 13.1457 3.60972 11.9838 4.16643Z" fill="black"/>
</svg>
