<svg xmlns="http://www.w3.org/2000/svg" viewBox="0 0 380.37 384.57"><defs><style>.cls-1{fill:none;stroke:#000;stroke-linecap:round;stroke-linejoin:round;stroke-width:13px;}</style></defs><g id="Layer_2" data-name="Layer 2"><g id="Capa_1" data-name="Capa 1"><path class="cls-1" d="M370.46,14.65c-5.12-.09-8.92,2.82-12.29,6a125.87,125.87,0,0,0-39.73,93.52q.21,47,0,93.94c0,9.72,3.18,17.92,10.12,24.71,4.29,4.19,8.4,8.57,12.76,12.67a8.41,8.41,0,0,1,2.61,6.78q-.07,54.09,0,108.17c0,8.31,4.6,14.31,11.95,15.71,9.28,1.78,17.35-4.61,17.94-14.22.05-.74,0-1.49,0-2.24q0-166.94,0-333.85c0-3.19-1.83-8.57-3.41-11.23"/><path class="cls-1" d="M6.5,6.5V89.21a2.41,2.41,0,0,0,0,.38,131.88,131.88,0,0,1,1,15.72C7.39,119,15.3,128.6,26.83,134.66c6,3.18,7.51,7,7.5,13.31-.2,71.24-.12,142.48-.14,213.71,0,9.56,5.19,14.69,12,16.07,9.27,1.88,17.36-4.59,18-14.2,0-.74,0-1.49,0-2.24q0-108.36,0-216.7c0-4.08,1.17-6.37,5.19-8.42,11.12-5.67,19.16-14.23,21.44-27.14.54-3,.74-6-.42-9a3.16,3.16,0,0,1,0-3c1.52-2.9,1.58-6.1,1.58-9.33q-.08-40.62,0-81.22"/><path class="cls-1" d="M296.75,272.23c.94,4-.49,7.13-3.15,10.14-15.93,18-35.07,31.43-57.7,39.56a130.8,130.8,0,0,1-34.4,7.2A141.43,141.43,0,0,1,170.8,328a134.8,134.8,0,0,1-51.6-18.83c-2.17-1.32-4.25-.83-6.4-1"/><path class="cls-1" d="M289.08,100.82C273.18,84.21,254.42,72,232.53,65a136.45,136.45,0,0,0-55-5.84,143.55,143.55,0,0,0-46.35,12.94,9.78,9.78,0,0,1-4.16,1"/><path class="cls-1" d="M35,6.5V96.14"/><path class="cls-1" d="M63.39,6.5V96.14"/><path class="cls-1" d="M171.18,137.49c-3.62-.52-6.71.88-9.73,2.62-16.07,9.21-26.54,22.64-30.67,40.8a62.41,62.41,0,0,0-1.52,16.47"/><path class="cls-1" d="M9.12,98.57c5.11-.66,10.23-.33,15.35-.35,3.09,0,6.16,0,9-1.52a3.73,3.73,0,0,1,3,0,46.34,46.34,0,0,0,25.45,0c.73-.2,1.69-.62,2.21-.33,5.14,2.88,10.73,1.5,16.13,1.81,3,.17,6,.26,9,.38"/><path class="cls-1" d="M184.28,95.2c-7.3,1-14.62,1.87-21.71,4.09-18.7,5.88-34.5,15.94-47.22,31a96.14,96.14,0,0,0-21.25,43.1q-8.71,42.18,16.05,77.49c13.1,18.74,30.72,31.14,52.44,37.73a99.09,99.09,0,0,0,101-28.09A96.42,96.42,0,0,0,287.66,212c4.86-26.09-.2-50.23-14.43-72.17-14.72-22.69-36-36.7-62.39-42.66a98.53,98.53,0,0,0-26.18-2"/></g></g></svg>