<svg xmlns="http://www.w3.org/2000/svg" viewBox="0 0 255.13 405.15"><defs><style>.cls-1{fill:none;stroke:#000;stroke-linecap:round;stroke-linejoin:round;stroke-width:10px;}</style></defs><g id="Layer_2" data-name="Layer 2"><g id="Capa_1" data-name="Capa 1"><path class="cls-1" d="M229.77,50.43c-.19-10.77.23-21.55-.34-32.34C229,9.47,222.05,3.44,213.81,5.36,197.68,9.1,181.59,13,165.5,16.91Q122.17,27.44,78.86,38c-4.48,1.09-8.59,2.68-11.57,6.41"/><path class="cls-1" d="M46.93,49.44c-10.12,1.13-20.24,2.19-30.34,3.41C10.18,53.63,5.17,59.47,5,66c0,1.2,0,2.4,0,3.6V385.38c0,8.81,5.91,14.76,14.77,14.76q107.79,0,215.58,0c8.86,0,14.77-5.95,14.77-14.76V67.6c0-8.95-4.85-13.68-13.54-15-4.69-.69-9.07-1.53-13.62.15a7.26,7.26,0,0,1-2.38,0q-70.07,0-140.13.06c-5.68,0-10.56-1.49-14.77-5.25"/><path class="cls-1" d="M149.13,85.17c-2.75,61.06-.52,122.16-1.11,183.24-.08,9.13,5.83,13.95,13.49,14.24,7.28.27,13.79-6.83,13.7-14.24-.33-26.35-.13-52.7-.13-79.05,0-.8-.05-1.6,0-2.39.29-4.41,1.4-5.67,5.59-6.39,6.47-1.12,8-2.86,8-9.18,0-14.37.34-28.76-.1-43.12-.36-11.71-3.65-22.58-11.84-31.57-5.87-6.45-13.29-9.63-21.61-11.07-1.63-.28-3.44.46-5.17.72"/><path class="cls-1" d="M120.78,78.38V119.1a4.28,4.28,0,0,1,0,.8,55.34,55.34,0,0,0-.3,19.6c1.07,7.15-2.89,13.28-9.31,17.07-3.26,1.93-4,4.5-4,8,.1,34.47.06,68.93.06,103.4a15,15,0,0,1-9.92,14.13C90.67,284.69,79.78,278,80,270c.2-6.51,0-13,0-19.56,0-28.34,0-56.69.07-85,0-3.9-1-6.6-4.41-8.85-8.81-5.9-11.35-14.3-7.54-24.25a3.57,3.57,0,0,0,.25-2.8c-1.92-3.83-2-7.89-2-12,0-13,0-26.08,0-39.12"/><path class="cls-1" d="M161.5,337.07H53.71"/><path class="cls-1" d="M200.63,364.42c-12.91-.07-25.82-.17-38.73-.19-7.18,0-14.37.12-21.55.19"/><path class="cls-1" d="M93.64,78.38c0,12.91,0,25.82,0,38.72a22.54,22.54,0,0,1-.32,6,3.2,3.2,0,0,0,1.12,3.59c5.33,4.08,10.73,7.7,18,5.21a47.38,47.38,0,0,1,5.58-1.23"/><path class="cls-1" d="M85.65,364.22l-31.14.2"/></g></g></svg>