<svg width="12" height="12" viewBox="0 0 12 12" fill="none" xmlns="http://www.w3.org/2000/svg">
<path d="M3.79057 5.71988C3.82594 5.67926 3.86837 5.64657 3.91542 5.62368C3.96248 5.60079 4.01325 5.58815 4.06482 5.58647C4.1164 5.5848 4.16778 5.59412 4.21602 5.61391C4.26426 5.63371 4.30843 5.66358 4.34599 5.70183C6.15392 7.54299 7.968 8.66319 10.1027 9.23417C10.3908 8.38473 10.4163 7.44981 10.1676 6.53773C9.83756 5.32754 9.06901 4.27318 7.94565 3.48877C6.94285 2.78852 5.94055 2.60615 4.9709 2.42989C3.7476 2.20745 2.59208 1.99721 1.48934 0.734995C1.36657 0.595369 1.19936 0.539359 1.03951 0.584751C0.856825 0.63784 0.734299 0.793925 0.675614 1.05194C0.53811 1.65584 0.626505 3.34835 1.01324 5.13509C1.63421 8.00567 2.62523 9.45821 3.34737 10.1715C4.28043 11.0923 5.49882 11.6022 6.70959 11.6022C6.93781 11.6026 7.16574 11.5845 7.39146 11.5481C8.41562 11.3803 9.26815 10.8242 9.74867 10.0151C7.55131 9.39716 5.67413 8.22201 3.80653 6.32112C3.7689 6.28282 3.73863 6.23687 3.71746 6.18589C3.69628 6.13492 3.68462 6.07993 3.68314 6.02408C3.68166 5.96823 3.69038 5.91261 3.70882 5.86041C3.72725 5.80821 3.75504 5.76045 3.79057 5.71988ZM11.3062 9.49431C10.8929 9.42556 10.4927 9.33929 10.103 9.23497C10.0229 9.47141 9.92319 9.69956 9.80515 9.91664C9.78722 9.94982 9.76832 9.98274 9.74892 10.0151C10.2229 10.1478 10.7028 10.2541 11.1868 10.3337C11.2383 10.3434 11.2911 10.342 11.3421 10.3295C11.3931 10.3169 11.4412 10.2935 11.4837 10.2605C11.5262 10.2276 11.5622 10.1858 11.5896 10.1376C11.617 10.0895 11.6352 10.0359 11.6431 9.98001C11.6511 9.92413 11.6486 9.86711 11.6359 9.81226C11.6233 9.75742 11.6006 9.70587 11.5692 9.66064C11.5378 9.6154 11.4984 9.57739 11.4533 9.54883C11.4082 9.52026 11.3582 9.50173 11.3064 9.49431H11.3062Z" fill="black"/>
</svg>
